<?xml version="1.0" encoding="utf-8"?>
<!-- Generator: Adobe Illustrator 28.1.0, SVG Export Plug-In . SVG Version: 6.00 Build 0)  -->
<svg version="1.1" xmlns="http://www.w3.org/2000/svg" xmlns:xlink="http://www.w3.org/1999/xlink" x="0px" y="0px"
	 viewBox="0 0 512 512" style="enable-background:new 0 0 512 512;" xml:space="preserve">
<style type="text/css">
	.st0{fill:#FCFAFA;stroke:#000000;stroke-width:2;stroke-miterlimit:10;}
	.st1{fill:#FC0B0B;stroke:#000000;stroke-width:2;stroke-miterlimit:10;}
	.st2{fill:#F70606;stroke:#000000;stroke-width:2;stroke-miterlimit:10;}
	.st3{fill:#F90B0B;stroke:#000000;stroke-width:2;stroke-miterlimit:10;}
	.st4{fill:#FF0B0B;stroke:#000000;stroke-width:2;stroke-miterlimit:10;}
	.st5{fill:#FCFCFC;stroke:#000000;stroke-width:2;stroke-miterlimit:10;}
	.st6{fill:#F90606;stroke:#000000;stroke-width:2;stroke-miterlimit:10;}
	.st7{fill:#FFF8F8;stroke:#000000;stroke-width:2;stroke-miterlimit:10;}
	.st8{fill:#F7F5F5;stroke:#000000;stroke-width:2;stroke-miterlimit:10;}
	.st9{fill:#F70F0F;stroke:#000000;stroke-miterlimit:10;}
	.st10{fill:#F7F7F7;stroke:#000000;stroke-width:2;stroke-miterlimit:10;}
</style>
<g id="Layer_2">
	<path class="st0" d="M353,384.12c15.54-0.62,43.06-21.57,39.98-27.09c-2.68-4.82-24.11-7.28-32.68-4.41
		c5.84-4.58,17.07-14.05,17.07-14.05s19.5-25.55,14.65-40.92l-31.65,4.8c0,0-8.48,0.34-19.33,12.09
		c-10.85,11.76-26.36,28.55-26.36,28.55s-3.24,2.36-7.44,5c-0.06,0.05-0.1,0.11-0.16,0.16c-7.69,6.84-16.36,8.78-25.86,7.69
		c-4.42-0.09-7.9-0.49-7.9-0.49l-6.89-2.81c-7.66-2.22-15.37-5.23-21.78-9.65l-10.27-5.81l-46.18-22.22l-10.68-1.7L164.38,312
		l-15.25-0.43c0,0-25.95,5.99-33.18,19.72s20.71,39.53,20.71,39.53l27.56,17.28c0,0,1.69,24.7,12.71,34.88
		c11.02,10.18,31.25,20.69,31.09,16.45c-0.17-4.24-2.48-26.79-2.48-26.79l-7.52-11.02l13.62,4.41l6.39,0.45l26.34,3.9l16.17-2.77
		c0,0,10.93,11.75,19.14,11.7c8.21-0.05,11.62-0.19,11.62-0.19s-4.71-14.67-7.65-17.39c-2.94-2.71,34.54-21.19,34.54-21.19
		S337.46,384.74,353,384.12z"/>
</g>
<g id="Layer_3">
	<path class="st1" d="M193.97,317.74c0,0,28.43-10.17,46.31-6.03s-6.23,18.69-10.27,23.12"/>
	<path class="st2" d="M274.31,366.23c12.47,2.2,25.56-9.63,30.41-14.58c-6.46,3.65-13.89,4.61-22.09,3.86
		c-12.02-1.1-25.72-3.38-35.99-10.02l-2.03-0.14c0,0-26.89,29.06-9.11,28.12s-8.41,25.87,15.36,18.14S258.63,363.46,274.31,366.23z"
		/>
	<path class="st3" d="M193.13,318.43c0,0-26.99,38.55-4.39,37.33s36.32-22.51,36.32-22.51"/>
</g>
<g id="Layer_2_copy">
	<path class="st4" d="M156.43,150.59c-15.48-0.77-44.65,17.56-42.1,23.31c2.23,5.02,23.28,9.38,32.04,7.3
		c-6.2,4.02-18.19,12.42-18.19,12.42s-21.64,23.61-18.19,39.3l31.84-1.94c0,0,8.44,0.42,20.27-10.27
		c11.82-10.7,28.71-25.98,28.71-25.98s3.43-2.05,7.83-4.3c0.06-0.05,0.11-0.1,0.18-0.14c8.24-6.1,17.02-7.26,26.35-5.32
		c4.38,0.48,7.79,1.19,7.79,1.19l6.58,3.4c7.4,2.88,14.79,6.56,20.75,11.52l9.68,6.68l43.84,26.18l10.45,2.64l12.91,2.43l15.1,1.79
		c0,0,26.28-3.62,34.69-16.61s-17.02-41.08-17.02-41.08l-25.8-19.61c0,0,0.53-24.66-9.5-35.75c-10.03-11.08-29.17-23.33-29.38-19.1
		c-0.21,4.22,0.07,26.81,0.07,26.81l6.47,11.61l-13.12-5.59l-6.3-1.02l-25.79-6.23l-16.29,1.3c0,0-9.8-12.63-17.95-13.32
		c-8.15-0.68-11.55-0.85-11.55-0.85s3.36,14.98,6.04,17.94c2.67,2.96-36.17,17.94-36.17,17.94S171.91,151.36,156.43,150.59z"/>
</g>
<g id="Layer_3_copy">
	<path class="st5" d="M297.19,224.97c0,0-29.16,7.39-46.5,1.58s7.95-17.94,12.38-21.95"/>
	
		<ellipse transform="matrix(0.5196 -0.8544 0.8544 0.5196 -224.5586 284.8883)" class="st6" cx="141.05" cy="342.12" rx="4" ry="5.5"/>
	<path class="st7" d="M241.25,177.87c-11.63-4.88-26.96,3.74-32.76,7.49c7.08-2.13,14.51-1.43,22.31,1.1
		c11.44,3.71,24.25,8.94,32.78,17.65l1.94,0.58c0,0,32.52-22.33,15.04-25.32c-17.49-2.99,13.86-23.29-10.94-21
		C244.81,160.65,255.88,184.01,241.25,177.87z"/>
	<path class="st8" d="M313.79,233.5c0,0,30.73-35.42,8.21-36.54c-22.52-1.13-38.32,18.56-38.32,18.56"/>
	<path class="st9" d="M283.04,138.24"/>
	<path class="st9" d="M301.59,153.61"/>
	
		<ellipse transform="matrix(0.5196 -0.8544 0.8544 0.5196 -16.1385 420.7827)" class="st10" cx="366.1" cy="224.74" rx="4" ry="5.5"/>
</g>
</svg>
